<svg width="17" height="16" viewBox="0 0 17 16" fill="none" xmlns="http://www.w3.org/2000/svg">
<path d="M16.978 9.92316L14.9351 5.83705L12.8921 9.92316H14.2681C13.4019 12.6273 10.8686 14.5928 7.87979 14.5928C4.17861 14.5928 1.16706 11.5814 1.16706 7.8801C1.16706 4.17892 4.17861 1.16737 7.87979 1.16737C10.7316 1.16737 13.1681 2.95811 14.1382 5.47234L14.8091 4.13038C13.4743 1.6724 10.8693 2.30236e-09 7.88031 2.30236e-09C3.53523 -0.000104171 0 3.53492 0 7.8801C0 12.225 3.53523 15.7603 7.88021 15.7603C11.5184 15.7603 14.5818 13.28 15.4846 9.92326H16.978V9.92316Z" fill="black"/>
<path d="M3.69667 9.45228H4.43464L4.65861 8.64504H5.55919L5.80212 9.45228H6.56728L5.592 6.30707H4.65861L3.69667 9.45228ZM4.94759 7.44568C4.99894 7.26349 5.04561 7.02545 5.09239 6.83908H5.10156C5.14833 7.02545 5.20448 7.25953 5.26063 7.44568L5.45668 8.11375H4.76132L4.94759 7.44568Z" fill="black"/>
<path d="M8.51479 6.86253C8.85971 6.86253 9.07431 6.92326 9.24703 6.99733L9.39662 6.42792C9.24255 6.35344 8.92972 6.27374 8.52396 6.27374C7.49254 6.27374 6.73218 6.87076 6.72665 7.91646C6.72228 8.37836 6.88083 8.7886 7.17043 9.06007C7.45983 9.34009 7.87496 9.48468 8.44937 9.48468C8.86398 9.48468 9.28016 9.38207 9.49892 9.30749V7.65081H8.32791V8.20616H8.81388V8.86381C8.75741 8.89235 8.62657 8.91058 8.46333 8.91058C7.87954 8.91058 7.474 8.52754 7.474 7.87885C7.474 7.19818 7.92153 6.86253 8.51479 6.86253Z" fill="black"/>
<path d="M11.9982 6.89084V6.30768H10.0569V9.45237H12.0638V8.86972H10.771V8.12301H11.9286V7.5438H10.771V6.89084H11.9982Z" fill="black"/>
</svg>
