<svg width="32" height="32" viewBox="0 0 32 32" fill="none" xmlns="http://www.w3.org/2000/svg">
<path d="M0 16C0 7.16344 7.16344 0 16 0C24.8366 0 32 7.16344 32 16C32 24.8366 24.8366 32 16 32C7.16344 32 0 24.8366 0 16Z" fill="#262626"/>
<path d="M13.9903 20.342L13.7308 20.2665L13.5255 20.4423C12.5817 21.2503 11.5303 21.6587 10.7064 21.8643C10.6734 21.8725 10.6407 21.8804 10.6084 21.888C11.5058 20.7389 11.7149 19.9082 11.7517 19.4672L11.7731 19.2095L11.5752 19.043C10.4799 18.1217 9.83334 16.8994 9.83334 15.5856C9.83334 12.8747 12.6406 10.5 16.3153 10.5C19.99 10.5 22.7973 12.8747 22.7973 15.5856C22.7973 18.2964 19.99 20.6712 16.3153 20.6712C15.4978 20.6712 14.714 20.5525 13.9903 20.342Z" stroke="white"/>
</svg>
