<svg width="32" height="32" viewBox="0 0 32 32" fill="none" xmlns="http://www.w3.org/2000/svg">
<path d="M0 16C0 7.16344 7.16344 0 16 0C24.8366 0 32 7.16344 32 16C32 24.8366 24.8366 32 16 32C7.16344 32 0 24.8366 0 16Z" fill="#262626"/>
<path d="M21.25 11H10.75C10.0596 11 9.5 11.5596 9.5 12.25V19.75C9.5 20.4404 10.0596 21 10.75 21H21.25C21.9404 21 22.5 20.4404 22.5 19.75V12.25C22.5 11.5596 21.9404 11 21.25 11Z" stroke="white" stroke-linecap="round" stroke-linejoin="round"/>
<path d="M11.5 13L16 16.5L20.5 13" stroke="white" stroke-linecap="round" stroke-linejoin="round"/>
</svg>
