<svg width="19" height="21" viewBox="0 0 19 21" fill="none" xmlns="http://www.w3.org/2000/svg">
<path d="M10.3699 4.36208H17.2907C17.8906 4.36208 18.3769 3.87574 18.3769 3.27585C18.3769 2.67596 17.8906 2.18962 17.2907 2.18962H10.3699C9.76997 2.18962 9.28363 2.67596 9.28363 3.27585C9.28363 3.87574 9.7699 4.36208 10.3699 4.36208Z" fill="#C0C7CD"/>
<path d="M10.3699 11.6036H17.2907C17.8906 11.6036 18.3769 11.1173 18.3769 10.5174C18.3769 9.9175 17.8906 9.43116 17.2907 9.43116H10.3699C9.76997 9.43116 9.28363 9.9175 9.28363 10.5174C9.28363 11.1173 9.7699 11.6036 10.3699 11.6036Z" fill="#C0C7CD"/>
<path d="M17.3218 16.6727H10.3699C9.76997 16.6727 9.28363 17.159 9.28363 17.7589C9.28363 18.3588 9.76997 18.8452 10.3699 18.8452H17.3218C17.9216 18.8452 18.408 18.3588 18.408 17.7589C18.408 17.159 17.9216 16.6727 17.3218 16.6727Z" fill="#C0C7CD"/>
<path d="M4.95 0.318158L2.445 2.82309L1.85431 2.23239C1.43017 1.80818 0.742368 1.80818 0.318158 2.23239C-0.106053 2.6566 -0.106053 3.34433 0.318158 3.76854L1.67696 5.12735C1.88907 5.33945 2.16707 5.44554 2.445 5.44554C2.72293 5.44554 3.00101 5.33953 3.21304 5.12735L6.48608 1.85431C6.91029 1.4301 6.91029 0.742368 6.48608 0.318158C6.06194 -0.106053 5.37414 -0.106053 4.95 0.318158Z" fill="#C0C7CD"/>
<path d="M4.95 8.11278L2.445 10.6178L1.85431 10.0271C1.43017 9.60294 0.742368 9.60287 0.318158 10.0271C-0.106053 10.4513 -0.106053 11.139 0.318158 11.5632L1.67696 12.922C1.88907 13.1341 2.16707 13.2401 2.445 13.2401C2.72293 13.2401 3.00101 13.1341 3.21304 12.9219L6.48608 9.64886C6.91029 9.22465 6.91029 8.53691 6.48608 8.1127C6.06194 7.68857 5.37414 7.68857 4.95 8.11278Z" fill="#C0C7CD"/>
<path d="M4.95 15.3543L2.445 17.8593L1.85431 17.2686C1.43017 16.8445 0.742368 16.8444 0.318158 17.2686C-0.106053 17.6928 -0.106053 18.3806 0.318158 18.8048L1.67696 20.1635C1.88907 20.3756 2.16707 20.4816 2.445 20.4816C2.72293 20.4816 3.00101 20.3756 3.21304 20.1634L6.48608 16.8904C6.91029 16.4662 6.91029 15.7785 6.48608 15.3542C6.06194 14.9301 5.37414 14.9301 4.95 15.3543Z" fill="#C0C7CD"/>
</svg>
