<svg width="19" height="21" viewBox="0 0 19 21" fill="none" xmlns="http://www.w3.org/2000/svg">
<path d="M10.3699 4.44538H17.2908C17.8907 4.44538 18.377 3.95904 18.377 3.35914C18.377 2.75924 17.8907 2.2729 17.2908 2.2729H10.3699C9.76998 2.2729 9.28363 2.75924 9.28363 3.35914C9.28363 3.95904 9.76991 4.44538 10.3699 4.44538Z" fill="#161B25"/>
<path d="M10.3699 11.687H17.2908C17.8907 11.687 18.377 11.2007 18.377 10.6008C18.377 10.0009 17.8907 9.51454 17.2908 9.51454H10.3699C9.76998 9.51454 9.28363 10.0009 9.28363 10.6008C9.28363 11.2007 9.76991 11.687 10.3699 11.687Z" fill="#161B25"/>
<path d="M17.3218 16.756H10.3699C9.76998 16.756 9.28363 17.2423 9.28363 17.8422C9.28363 18.4421 9.76998 18.9285 10.3699 18.9285H17.3218C17.9217 18.9285 18.4081 18.4421 18.4081 17.8422C18.4081 17.2423 17.9217 16.756 17.3218 16.756Z" fill="#161B25"/>
<path d="M4.95005 0.401413L2.44503 2.90636L1.85433 2.31566C1.43018 1.89145 0.742375 1.89145 0.318161 2.31566C-0.106054 2.73988 -0.106054 3.42762 0.318161 3.85183L1.67698 5.21065C1.88909 5.42276 2.16709 5.52885 2.44503 5.52885C2.72296 5.52885 3.00104 5.42283 3.21307 5.21065L6.48614 1.93758C6.91036 1.51336 6.91036 0.825627 6.48614 0.401413C6.062 -0.0228016 5.37419 -0.0228016 4.95005 0.401413Z" fill="#161B25"/>
<path d="M4.94993 8.1961L2.4449 10.7011L1.8542 10.1104C1.43006 9.68628 0.742253 9.68621 0.318039 10.1104C-0.106176 10.5346 -0.106176 11.2224 0.318039 11.6466L1.67686 13.0053C1.88896 13.2174 2.16697 13.3235 2.4449 13.3235C2.72284 13.3235 3.00092 13.2174 3.21295 13.0053L6.48602 9.73219C6.91023 9.30798 6.91023 8.62024 6.48602 8.19602C6.06188 7.77188 5.37407 7.77188 4.94993 8.1961Z" fill="#161B25"/>
<path d="M4.94993 15.4377L2.4449 17.9428L1.8542 17.3521C1.43006 16.9279 0.742253 16.9279 0.318039 17.3521C-0.106176 17.7763 -0.106176 18.464 0.318039 18.8882L1.67686 20.247C1.88896 20.4591 2.16697 20.5651 2.4449 20.5651C2.72284 20.5651 3.00092 20.4591 3.21295 20.2469L6.48602 16.9738C6.91023 16.5496 6.91023 15.8619 6.48602 15.4377C6.06188 15.0135 5.37407 15.0135 4.94993 15.4377Z" fill="#161B25"/>
</svg>
