<svg width="21" height="21" viewBox="0 0 21 21" fill="none" xmlns="http://www.w3.org/2000/svg">
<path d="M18.0232 11.5281C18.0669 11.2 18.0888 10.8609 18.0888 10.5C18.0888 10.15 18.0669 9.8 18.0122 9.47188L20.2326 7.74375C20.3282 7.66489 20.3936 7.5553 20.4175 7.43364C20.4415 7.31198 20.4225 7.18579 20.3638 7.07656L18.2638 3.44532C18.202 3.33546 18.1033 3.25104 17.9852 3.207C17.867 3.16296 17.7372 3.16214 17.6185 3.20469L15.0044 4.25469C14.4576 3.83907 13.8779 3.48906 13.2326 3.22657L12.8388 0.448441C12.8194 0.323239 12.7558 0.209136 12.6595 0.126852C12.5631 0.0445682 12.4405 -0.000439146 12.3138 3.23028e-06H8.11381C7.85131 3.23028e-06 7.6435 0.185941 7.59975 0.448441L7.206 3.22657C6.56069 3.48906 5.97006 3.85 5.43413 4.25469L2.82006 3.20469C2.57944 3.11719 2.306 3.20469 2.17475 3.44532L0.0856877 7.07656C-0.0455623 7.30625 -0.00181242 7.59063 0.216938 7.74375L2.43725 9.47188C2.38256 9.8 2.33881 10.1609 2.33881 10.5C2.33881 10.8391 2.36069 11.2 2.41538 11.5281L0.195063 13.2563C0.0993857 13.3351 0.0340119 13.4447 0.0100794 13.5664C-0.0138531 13.688 0.00513656 13.8142 0.0638127 13.9234L2.16381 17.5547C2.29506 17.7953 2.5685 17.8719 2.80913 17.7953L5.42319 16.7453C5.97006 17.1609 6.54975 17.5109 7.19506 17.7734L7.58881 20.5516C7.6435 20.8141 7.85131 21 8.11381 21H12.3138C12.5763 21 12.7951 20.8141 12.8279 20.5516L13.2216 17.7734C13.8669 17.5109 14.4576 17.1609 14.9935 16.7453L17.6076 17.7953C17.8482 17.8828 18.1216 17.7953 18.2529 17.5547L20.3529 13.9234C20.4841 13.6828 20.4294 13.4094 20.2216 13.2563L18.0232 11.5281ZM10.2138 14.4375C8.04819 14.4375 6.27631 12.6656 6.27631 10.5C6.27631 8.33438 8.04819 6.5625 10.2138 6.5625C12.3794 6.5625 14.1513 8.33438 14.1513 10.5C14.1513 12.6656 12.3794 14.4375 10.2138 14.4375Z" fill="#C0C7CD"/>
</svg>
