<svg width="23" height="22" viewBox="0 0 23 22" fill="none" xmlns="http://www.w3.org/2000/svg">
<path d="M21.85 2.68333H17.6333V0H16.1V2.68333H6.9V0H5.36667V2.68333H1.15C0.84511 2.68369 0.552809 2.80496 0.337219 3.02055C0.121629 3.23614 0.000355084 3.52844 0 3.83333V19.9333C0.000355084 20.2382 0.121629 20.5305 0.337219 20.7461C0.552809 20.9617 0.84511 21.083 1.15 21.0833H21.85C22.1549 21.083 22.4472 20.9617 22.6628 20.7461C22.8784 20.5305 22.9996 20.2382 23 19.9333V3.83333C22.9996 3.52844 22.8784 3.23614 22.6628 3.02055C22.4472 2.80496 22.1549 2.68369 21.85 2.68333ZM21.4667 19.55H1.53333V4.21667H5.36667V6.13333H6.9V4.21667H16.1V6.13333H17.6333V4.21667H21.4667V19.55Z" fill="#C0C7CD"/>
<path d="M4.59991 8.81642H6.13325V10.3498H4.59991V8.81642Z" fill="#C0C7CD"/>
<path d="M8.81592 8.81642H10.3493V10.3498H8.81592V8.81642Z" fill="#C0C7CD"/>
<path d="M12.6501 8.81642H14.1834V10.3498H12.6501V8.81642Z" fill="#C0C7CD"/>
<path d="M16.8661 8.81642H18.3995V10.3498H16.8661V8.81642Z" fill="#C0C7CD"/>
<path d="M4.59991 12.2662H6.13325V13.7996H4.59991V12.2662Z" fill="#C0C7CD"/>
<path d="M8.81592 12.2662H10.3493V13.7996H8.81592V12.2662Z" fill="#C0C7CD"/>
<path d="M12.6501 12.2662H14.1834V13.7996H12.6501V12.2662Z" fill="#C0C7CD"/>
<path d="M16.8661 12.2662H18.3995V13.7996H16.8661V12.2662Z" fill="#C0C7CD"/>
<path d="M4.59991 15.7165H6.13325V17.2499H4.59991V15.7165Z" fill="#C0C7CD"/>
<path d="M8.81592 15.7165H10.3493V17.2499H8.81592V15.7165Z" fill="#C0C7CD"/>
<path d="M12.6501 15.7165H14.1834V17.2499H12.6501V15.7165Z" fill="#C0C7CD"/>
<path d="M16.8661 15.7165H18.3995V17.2499H16.8661V15.7165Z" fill="#C0C7CD"/>
</svg>
