<svg width="21" height="21" viewBox="0 0 21 21" fill="none" xmlns="http://www.w3.org/2000/svg">
<circle cx="10.5" cy="10.5" r="10" fill="white" stroke="#E4E6EA"/>
<path d="M12.8348 10.8583L9.92563 13.7631C9.8185 13.8761 9.68471 13.9326 9.52402 13.9326C9.36333 13.9326 9.22954 13.8761 9.12241 13.7631L8.7833 13.4284C8.67321 13.3183 8.61817 13.1845 8.61817 13.0268C8.61817 12.8722 8.67319 12.7368 8.7833 12.6208L10.9518 10.4566L8.7832 8.28803C8.67315 8.17796 8.6181 8.04416 8.6181 7.88648C8.6181 7.73182 8.67313 7.59638 8.7832 7.48045L9.12235 7.14579C9.23242 7.03572 9.36634 6.98069 9.52396 6.98069C9.68164 6.98069 9.81553 7.03572 9.92557 7.14579L12.8348 10.0506C12.9449 10.1666 13 10.302 13 10.4567C13 10.6143 12.9449 10.7482 12.8348 10.8583Z" fill="#6D778A"/>
</svg>
