<svg width="25" height="21" viewBox="0 0 25 21" fill="none" xmlns="http://www.w3.org/2000/svg">
<path d="M20.6461 11.0504H18.78C18.9702 11.5711 19.0742 12.1331 19.0742 12.7189V19.7715C19.0742 20.0157 19.0316 20.2501 18.9543 20.4682H22.0393C23.1917 20.4682 24.1292 19.5306 24.1292 18.3782V14.5335C24.1293 12.6129 22.5667 11.0504 20.6461 11.0504Z" fill="white"/>
<path d="M5.05514 12.7191C5.05514 12.1333 5.15905 11.5714 5.34926 11.0506H3.4832C1.56256 11.0506 0 12.6132 0 14.5338V18.3785C0 19.5309 0.937508 20.4684 2.08992 20.4684H5.17498C5.09765 20.2503 5.05514 20.016 5.05514 19.7717V12.7191Z" fill="white"/>
<path d="M14.1977 9.23575H9.93162C8.01099 9.23575 6.44843 10.7983 6.44843 12.7189V19.7716C6.44843 20.1563 6.76032 20.4682 7.14506 20.4682H16.9843C17.369 20.4682 17.6809 20.1563 17.6809 19.7716V12.7189C17.6809 10.7983 16.1183 9.23575 14.1977 9.23575Z" fill="white"/>
<path d="M12.0647 0C9.75484 0 7.87567 1.87916 7.87567 4.18903C7.87567 5.75578 8.74042 7.12413 10.0175 7.84254C10.6232 8.18328 11.3215 8.37801 12.0647 8.37801C12.8078 8.37801 13.5061 8.18328 14.1118 7.84254C15.3889 7.12413 16.2536 5.75573 16.2536 4.18903C16.2536 1.87921 14.3745 0 12.0647 0Z" fill="white"/>
<path d="M4.70891 3.9046C2.98145 3.9046 1.57611 5.30995 1.57611 7.03741C1.57611 8.76487 2.98145 10.1702 4.70891 10.1702C5.14711 10.1702 5.56437 10.0794 5.94342 9.91629C6.59878 9.63413 7.13914 9.13468 7.47351 8.50906C7.70821 8.06997 7.84172 7.56905 7.84172 7.03741C7.84172 5.30999 6.43637 3.9046 4.70891 3.9046Z" fill="white"/>
<path d="M19.4204 3.9046C17.6929 3.9046 16.2876 5.30995 16.2876 7.03741C16.2876 7.5691 16.4211 8.07002 16.6558 8.50906C16.9902 9.13472 17.5305 9.63418 18.1859 9.91629C18.5649 10.0794 18.9822 10.1702 19.4204 10.1702C21.1479 10.1702 22.5532 8.76487 22.5532 7.03741C22.5532 5.30995 21.1479 3.9046 19.4204 3.9046Z" fill="white"/>
</svg>
