<svg width="21" height="21" viewBox="0 0 21 21" fill="none" xmlns="http://www.w3.org/2000/svg">
<path fill-rule="evenodd" clip-rule="evenodd" d="M20.946 10.473C20.946 13.2506 19.8426 15.9144 17.8785 17.8785C15.9144 19.8426 13.2506 20.946 10.473 20.946C7.69537 20.946 5.03153 19.8426 3.06746 17.8785C1.1034 15.9144 0 13.2506 0 10.473C0 7.69537 1.1034 5.03153 3.06746 3.06746C5.03153 1.1034 7.69537 0 10.473 0C13.2506 0 15.9144 1.1034 17.8785 3.06746C19.8426 5.03153 20.946 7.69537 20.946 10.473V10.473ZM8.60093 7.89793H6.87289C6.83362 5.42893 8.74494 4.58193 10.4808 4.58193C12.3097 4.58193 13.9801 5.53759 13.9801 7.51436C13.9801 8.92821 13.1488 9.6011 12.3516 10.2072C11.3867 10.939 11.0294 11.2126 11.0294 12.1526V12.6173H9.31702L9.30786 12.0112C9.25811 10.7976 9.95587 10.0501 10.8369 9.40997C11.6093 8.82872 12.1002 8.44646 12.1002 7.61516C12.1002 6.53514 11.2781 6.08611 10.38 6.08611C9.20051 6.08611 8.60224 6.87551 8.60224 7.89793H8.60093ZM10.2386 16.3326C9.47412 16.3326 8.91774 15.8168 8.91774 15.1191C8.91774 14.3964 9.47412 13.8885 10.24 13.8885C11.0372 13.8885 11.5857 14.3964 11.5857 15.1191C11.5857 15.8168 11.0359 16.3326 10.2386 16.3326Z" fill="#C0C7CD"/>
</svg>
