<svg width="38" height="48" viewBox="0 0 38 48" fill="none" xmlns="http://www.w3.org/2000/svg">
<path d="M37.1939 5.80253C37.5886 5.16151 37.7844 4.41785 37.7565 3.66558C37.7286 2.9133 37.4783 2.18618 37.0372 1.57616C36.5961 0.966133 35.984 0.500587 35.2784 0.238379C34.5727 -0.0238281 33.8052 -0.0709238 33.0728 0.103047C32.3403 0.277017 31.6759 0.664242 31.1636 1.21576C30.6512 1.76729 30.3139 2.45835 30.1942 3.20157C30.0746 3.94479 30.1779 4.70681 30.4913 5.39127C30.8047 6.07574 31.314 6.65193 31.9548 7.04699C32.3804 7.30942 32.8537 7.48541 33.3474 7.5649C33.8411 7.64439 34.3456 7.62582 34.8322 7.51026C35.3187 7.39469 35.7777 7.18439 36.183 6.89137C36.5882 6.59835 36.9317 6.22836 37.1939 5.80253Z" fill="url(#paint0_linear)"/>
<path d="M31.1334 10.5746L31.3408 20.8483C31.4253 25.4077 32.2905 29.9189 33.8989 34.1861L37.4276 43.489L37.4511 17.7551C37.5147 11.6683 34.6179 10.5746 31.1334 10.5746Z" fill="url(#paint1_linear)"/>
<path d="M17.5578 10.642C16.3588 10.6421 15.1863 10.9951 14.1865 11.657C13.1867 12.3189 12.4039 13.2605 11.9356 14.3643L0.894555 40.3955C-0.596025 43.909 0.73969 47.8042 4.55602 47.8042H4.99987L17.5827 16.0346L28.8326 43.7169C29.3085 44.9228 30.1363 45.9577 31.2082 46.6869C32.2802 47.4161 33.5468 47.8059 34.8433 47.8056H37.5479L23.3169 14.3519C22.3573 12.098 20.0066 10.642 17.5578 10.642Z" fill="url(#paint2_linear)"/>
<defs>
<linearGradient id="paint0_linear" x1="33.9525" y1="0" x2="33.9525" y2="7.6133" gradientUnits="userSpaceOnUse">
<stop stop-color="#FEAC5E"/>
<stop offset="1" stop-color="#C779D0"/>
</linearGradient>
<linearGradient id="paint1_linear" x1="34.2928" y1="10.5746" x2="34.2928" y2="43.489" gradientUnits="userSpaceOnUse">
<stop stop-color="#FEAC5E"/>
<stop offset="1" stop-color="#C779D0"/>
</linearGradient>
<linearGradient id="paint2_linear" x1="18.9232" y1="10.642" x2="18.9232" y2="47.8056" gradientUnits="userSpaceOnUse">
<stop stop-color="#FEAC5E"/>
<stop offset="1" stop-color="#C779D0"/>
</linearGradient>
</defs>
</svg>
