<svg width="32" height="32" viewBox="0 0 32 32" fill="none" xmlns="http://www.w3.org/2000/svg">
<path d="M0 16C0 7.16344 7.16344 0 16 0C24.8366 0 32 7.16344 32 16C32 24.8366 24.8366 32 16 32C7.16344 32 0 24.8366 0 16Z" fill="#262626"/>
<path d="M21.658 19.4267L18.948 16.9627C18.8199 16.8462 18.6516 16.7841 18.4785 16.7895C18.3055 16.7948 18.1413 16.8672 18.0207 16.9913L16.4253 18.632C16.0413 18.5587 15.2693 18.318 14.4747 17.5253C13.68 16.73 13.4393 15.956 13.368 15.5747L15.0073 13.9787C15.1316 13.8581 15.2041 13.6939 15.2094 13.5208C15.2148 13.3477 15.1526 13.1794 15.036 13.0513L12.5727 10.342C12.456 10.2136 12.2939 10.1357 12.1208 10.1248C11.9476 10.114 11.7771 10.1711 11.6453 10.284L10.1987 11.5247C10.0834 11.6403 10.0146 11.7943 10.0053 11.9573C9.99532 12.124 9.80466 16.072 12.866 19.1347C15.5367 21.8047 18.882 22 19.8033 22C19.938 22 20.0207 21.996 20.0427 21.9947C20.2057 21.9855 20.3595 21.9164 20.4747 21.8007L21.7147 20.3533C21.828 20.222 21.8855 20.0516 21.8749 19.8785C21.8643 19.7053 21.7865 19.5432 21.658 19.4267V19.4267Z" stroke="white" stroke-width="0.8"/>
</svg>
