<svg width="38" height="38" viewBox="0 0 38 38" fill="none" xmlns="http://www.w3.org/2000/svg">
<circle cx="19" cy="19" r="18.4764" stroke="white" stroke-width="1.0473"/>
<path d="M27.3607 19C27.3607 19.7705 27.2939 20.3933 26.5234 20.3933H20.3941V26.5226C20.3941 27.2917 19.7713 27.36 19.0007 27.36C18.2302 27.36 17.6074 27.2917 17.6074 26.5226V20.3933H11.4781C10.709 20.3933 10.6407 19.7705 10.6407 19C10.6407 18.2295 10.709 17.6067 11.4781 17.6067H17.6074V11.4774C17.6074 10.7069 18.2302 10.64 19.0007 10.64C19.7713 10.64 20.3941 10.7069 20.3941 11.4774V17.6067H26.5234C27.2939 17.6067 27.3607 18.2295 27.3607 19Z" fill="white"/>
</svg>
