<svg width="18" height="19" viewBox="0 0 18 19" fill="none" xmlns="http://www.w3.org/2000/svg">
<path d="M17.4151 15.4018L17.2164 15.2265C16.6527 14.7243 16.1593 14.1483 15.7495 13.5142C15.302 12.6391 15.0338 11.6834 14.9606 10.7033V7.81633C14.9645 6.27679 14.406 4.78884 13.3902 3.63202C12.3743 2.4752 10.971 1.72915 9.44387 1.53405V0.780172C9.44387 0.573257 9.36168 0.374818 9.21537 0.228507C9.06906 0.0821965 8.87062 0 8.6637 0C8.45679 0 8.25835 0.0821965 8.11204 0.228507C7.96573 0.374818 7.88353 0.573257 7.88353 0.780172V1.54573C6.37009 1.75491 4.98373 2.50546 3.98123 3.6584C2.97873 4.81133 2.42802 6.2885 2.4311 7.81633V10.7033C2.3579 11.6834 2.08968 12.6391 1.64216 13.5142C1.23944 14.1467 0.753987 14.7226 0.198695 15.2265L0 15.4018V17.0498H17.4151V15.4018Z" fill="#161B25"/>
<path d="M7.17041 17.6636C7.22166 18.034 7.40522 18.3734 7.68719 18.619C7.96916 18.8647 8.33049 19 8.70446 19C9.07842 19 9.43975 18.8647 9.72172 18.619C10.0037 18.3734 10.1873 18.034 10.2385 17.6636H7.17041Z" fill="#161B25"/>
</svg>
