<svg width="25" height="26" viewBox="0 0 25 26" fill="none" xmlns="http://www.w3.org/2000/svg">
<path d="M24.4431 16.5676L19.5063 13.1147C19.2872 12.9615 19.0263 12.8793 18.7589 12.8793H14.5789L14.38 12.6065C13.0765 12.6122 11.1716 12.6008 9.86596 12.6065C9.49395 12.6082 9.15931 12.4351 8.95156 12.1591L7.04359 9.58973L9.3999 11.6586C9.61061 11.8436 9.88183 11.9378 10.1622 11.9362H10.1673H15.0125C15.6548 11.9333 16.1732 11.396 16.1704 10.7537C16.1675 10.1132 15.6474 9.60232 15.0075 9.60232C15.0057 9.60232 15.0039 9.60232 15.0022 9.60232H10.5981L8.57826 7.84183L10.5525 8.94087H11.8073L9.93019 6.24362C9.31332 5.35812 8.1075 5.11728 7.1978 5.69789L5.71229 6.64601C4.74565 7.26294 4.48967 8.56201 5.14995 9.49957L8.80595 14.6905C9.15801 15.1914 9.73202 15.4895 10.3443 15.4894L18.348 15.4874L22.9482 18.7048C23.1757 18.864 23.4363 18.9404 23.6945 18.9404C24.1058 18.9404 24.5106 18.7463 24.7643 18.3836C25.1771 17.7934 25.0333 16.9803 24.4431 16.5676Z" fill="#161B25"/>
<path d="M5.85131 5.31642C7.05768 4.57222 7.43235 2.99094 6.68814 1.78457C5.94394 0.578199 4.36265 0.203535 3.15628 0.947737C1.9499 1.69194 1.57524 3.27322 2.31944 4.47959C3.06371 5.68596 4.64493 6.06063 5.85131 5.31642Z" fill="#161B25"/>
<path d="M17.5312 18.2881L22.8814 22.1944C23.3588 22.5429 24.0284 22.4385 24.377 21.961C24.7255 21.4836 24.6212 20.814 24.1437 20.4654L18.5116 16.3533C18.3284 16.2195 18.1074 16.1474 17.8804 16.1474H8.7642L1.9465 6.43493C1.60685 5.95114 0.939341 5.83424 0.455494 6.17383C-0.0283529 6.51342 -0.145254 7.18105 0.194396 7.66484L7.33174 17.8327C7.53214 18.1182 7.85907 18.2881 8.20779 18.2881H12.3612V22.8333C10.4826 23.0378 9.06137 23.9502 9.06137 24.4144C9.06137 24.9393 10.8773 25.3647 13.1175 25.3647C15.3576 25.3647 17.1735 24.9392 17.1735 24.4144C17.1735 23.9516 15.7606 23.0431 13.8903 22.835C13.8903 21.9583 13.8903 19.3688 13.8903 18.2881H17.5312Z" fill="#161B25"/>
</svg>
